<svg width="25" height="25" viewBox="0 0 25 25" fill="none" xmlns="http://www.w3.org/2000/svg">
<path d="M16.251 8.75C15.5596 8.75 15.001 8.19141 15.001 7.5C15.001 6.80859 15.5596 6.25 16.251 6.25L22.501 6.25C23.1924 6.25 23.751 6.80859 23.751 7.5L23.751 13.75C23.751 14.4414 23.1924 15 22.501 15C21.8096 15 21.251 14.4414 21.251 13.75L21.251 10.5195L14.6338 17.1367C14.1455 17.625 13.3525 17.625 12.8643 17.1367L8.75098 13.0195L3.38379 18.3828C2.89551 18.8711 2.10254 18.8711 1.61426 18.3828C1.12598 17.8945 1.12598 17.1016 1.61426 16.6133L7.86426 10.3633C8.35254 9.875 9.14551 9.875 9.63379 10.3633L13.751 14.4805L19.4814 8.75L16.251 8.75Z" fill="#294F7C"/>
</svg>
