<svg width="60" height="60" viewBox="0 0 60 60" fill="none" xmlns="http://www.w3.org/2000/svg">
<circle cx="30" cy="30" r="29.5" fill="#CFE6F7" stroke="#294F7C"/>
<path d="M37.5 27.75C37.5 29.9016 36.8016 31.8891 35.625 33.5016L41.5594 39.4406C42.1453 40.0266 42.1453 40.9781 41.5594 41.5641C40.9734 42.15 40.0219 42.15 39.4359 41.5641L33.5016 35.625C31.8891 36.8016 29.9016 37.5 27.75 37.5C22.3641 37.5 18 33.1359 18 27.75C18 22.3641 22.3641 18 27.75 18C33.1359 18 37.5 22.3641 37.5 27.75ZM22.875 28.125V31.125C22.875 31.7484 23.3766 32.25 24 32.25C24.6234 32.25 25.125 31.7484 25.125 31.125V28.125C25.125 27.5016 24.6234 27 24 27C23.3766 27 22.875 27.5016 22.875 28.125ZM26.625 23.625V31.125C26.625 31.7484 27.1266 32.25 27.75 32.25C28.3734 32.25 28.875 31.7484 28.875 31.125V23.625C28.875 23.0016 28.3734 22.5 27.75 22.5C27.1266 22.5 26.625 23.0016 26.625 23.625ZM30.375 26.625V31.125C30.375 31.7484 30.8766 32.25 31.5 32.25C32.1234 32.25 32.625 31.7484 32.625 31.125V26.625C32.625 26.0016 32.1234 25.5 31.5 25.5C30.8766 25.5 30.375 26.0016 30.375 26.625Z" fill="#294F7C"/>
</svg>
